<svg id="svg" version="1.1" xmlns="http://www.w3.org/2000/svg" xmlns:xlink="http://www.w3.org/1999/xlink" width="400" height="400" viewBox="0, 0, 400,400"><g id="svgg"><path id="path0" d="M220.800 39.042 C 217.390 40.463,213.860 41.980,212.956 42.413 C 212.052 42.846,211.179 43.200,211.017 43.200 C 210.723 43.200,210.211 43.416,206.000 45.313 C 204.790 45.858,203.350 46.440,202.800 46.606 C 202.250 46.772,201.445 47.154,201.011 47.454 C 200.577 47.754,199.913 48.000,199.535 48.000 C 198.298 48.000,198.203 48.852,197.916 62.600 C 196.975 107.581,197.248 104.706,193.850 105.421 C 193.162 105.566,192.060 105.915,191.400 106.197 C 190.740 106.479,188.490 107.287,186.400 107.994 C 184.310 108.700,182.240 109.432,181.800 109.620 C 181.360 109.809,179.290 110.525,177.200 111.212 C 175.110 111.898,173.040 112.622,172.600 112.819 C 171.572 113.281,168.748 114.270,166.200 115.061 C 165.100 115.402,164.020 115.817,163.800 115.982 C 163.580 116.148,162.680 116.480,161.800 116.721 C 160.361 117.114,156.348 118.462,154.800 119.071 C 143.869 123.373,142.472 122.607,143.167 112.689 C 143.710 104.930,144.203 65.833,143.755 66.083 C 143.283 66.347,136.512 69.564,133.000 71.193 C 126.683 74.122,114.445 79.987,114.032 80.282 C 113.940 80.348,113.653 90.527,113.394 102.901 C 112.830 129.826,113.432 127.316,107.000 129.580 C 103.045 130.972,96.984 133.214,96.200 133.576 C 95.760 133.778,94.680 134.160,93.800 134.424 C 92.920 134.688,92.020 135.028,91.800 135.180 C 91.580 135.332,90.590 135.707,89.600 136.015 C 88.610 136.322,87.350 136.804,86.800 137.085 C 86.250 137.365,85.575 137.596,85.300 137.598 C 84.636 137.601,84.718 137.025,84.388 144.000 C 84.227 147.410,83.870 154.662,83.595 160.115 C 83.321 165.568,83.172 170.105,83.265 170.198 C 83.460 170.394,87.813 169.343,89.000 168.814 C 89.440 168.618,90.790 168.250,92.000 167.998 C 93.210 167.745,94.470 167.431,94.800 167.301 C 95.529 167.012,100.121 165.771,103.400 164.976 C 104.720 164.656,106.109 164.217,106.486 164.002 C 106.864 163.786,108.164 163.494,109.375 163.351 C 114.522 162.746,115.019 166.116,111.209 175.800 C 111.036 176.240,110.443 178.040,109.892 179.800 C 106.506 190.609,105.074 195.094,104.782 195.800 C 104.601 196.240,103.884 198.490,103.189 200.800 C 102.495 203.110,101.777 205.360,101.593 205.800 C 101.282 206.542,98.139 216.405,96.301 222.400 C 95.863 223.830,95.256 225.567,94.952 226.260 C 94.649 226.954,94.403 227.674,94.407 227.860 C 94.414 228.241,90.908 239.351,90.386 240.600 C 90.202 241.040,89.484 243.290,88.789 245.600 C 88.095 247.910,87.381 250.160,87.203 250.600 C 87.025 251.040,85.984 254.190,84.891 257.600 L 82.904 263.800 86.752 266.251 C 88.868 267.598,91.410 269.205,92.400 269.822 C 93.390 270.438,95.100 271.508,96.200 272.201 C 97.300 272.893,99.460 274.237,101.000 275.188 C 102.540 276.138,104.277 277.241,104.859 277.639 C 106.086 278.478,106.177 278.343,107.426 273.800 C 108.499 269.898,109.456 266.642,109.719 266.000 C 109.854 265.670,110.254 264.320,110.609 263.000 C 110.964 261.680,111.590 259.430,112.000 258.000 C 112.410 256.570,113.032 254.320,113.380 253.000 C 113.729 251.680,114.163 250.330,114.345 250.000 C 114.527 249.670,114.897 248.410,115.167 247.200 C 115.437 245.990,115.818 244.640,116.014 244.200 C 116.210 243.760,116.659 242.320,117.012 241.000 C 117.365 239.680,118.021 237.340,118.469 235.800 C 118.917 234.260,119.583 231.920,119.949 230.600 C 120.316 229.280,120.723 228.020,120.855 227.800 C 120.987 227.580,121.311 226.410,121.576 225.200 C 121.841 223.990,122.218 222.640,122.414 222.200 C 122.751 221.444,123.075 220.306,124.581 214.600 C 124.929 213.280,125.363 211.930,125.545 211.600 C 125.727 211.270,126.097 210.010,126.367 208.800 C 126.637 207.590,127.018 206.240,127.214 205.800 C 127.410 205.360,127.859 203.920,128.212 202.600 C 128.565 201.280,129.221 198.940,129.669 197.400 C 130.117 195.860,130.797 193.520,131.179 192.200 C 131.561 190.880,131.984 189.530,132.119 189.200 C 132.254 188.870,132.654 187.520,133.009 186.200 C 133.364 184.880,133.990 182.630,134.400 181.200 C 134.810 179.770,135.432 177.520,135.780 176.200 C 136.129 174.880,136.563 173.530,136.745 173.200 C 136.927 172.870,137.297 171.610,137.567 170.400 C 137.837 169.190,138.218 167.840,138.414 167.400 C 138.610 166.960,139.065 165.520,139.425 164.200 C 142.480 152.987,142.417 153.086,147.200 151.996 C 148.410 151.721,149.580 151.369,149.800 151.214 C 150.020 151.059,151.271 150.701,152.580 150.419 C 153.889 150.138,155.239 149.753,155.580 149.566 C 155.921 149.378,157.280 148.943,158.600 148.598 C 159.920 148.254,162.170 147.636,163.600 147.224 C 165.030 146.813,167.460 146.114,169.000 145.672 C 170.540 145.230,173.060 144.484,174.600 144.014 C 178.366 142.865,182.097 141.788,185.000 141.012 C 186.320 140.659,187.795 140.172,188.278 139.929 C 191.184 138.470,192.596 140.998,192.451 147.400 C 192.316 153.350,191.293 183.208,190.828 194.800 C 190.638 199.530,190.359 207.302,190.209 212.071 L 189.935 220.742 190.857 220.501 C 191.364 220.369,192.233 220.023,192.789 219.733 C 193.345 219.442,194.043 219.204,194.340 219.202 C 194.636 219.201,195.446 218.947,196.140 218.637 C 196.833 218.327,199.110 217.509,201.200 216.818 C 203.290 216.128,205.360 215.409,205.800 215.220 C 206.240 215.032,208.310 214.303,210.400 213.600 C 212.490 212.897,214.560 212.176,215.000 211.997 C 215.440 211.818,217.015 211.262,218.500 210.762 L 221.200 209.852 221.200 207.444 C 221.200 206.120,221.387 203.139,221.615 200.818 C 221.844 198.498,222.311 188.140,222.653 177.800 C 224.364 126.170,223.792 131.156,228.157 129.785 C 229.281 129.432,230.560 128.984,231.000 128.790 C 231.440 128.596,232.610 128.217,233.600 127.948 C 234.590 127.680,235.580 127.339,235.800 127.192 C 236.020 127.045,237.100 126.688,238.200 126.400 C 239.300 126.112,240.380 125.740,240.600 125.574 C 240.820 125.408,241.677 125.145,242.504 124.990 C 244.639 124.592,244.553 125.057,245.078 111.000 C 245.341 103.960,245.680 95.815,245.831 92.900 C 245.982 89.985,245.999 87.600,245.868 87.600 C 245.737 87.600,244.678 87.940,243.515 88.356 C 242.352 88.771,239.780 89.593,237.800 90.183 C 235.820 90.772,233.356 91.512,232.325 91.827 C 229.370 92.730,228.224 92.582,227.010 91.140 L 225.950 89.879 226.116 83.040 C 226.208 79.278,226.500 67.594,226.766 57.076 C 227.032 46.558,227.193 37.616,227.125 37.205 C 227.013 36.538,226.342 36.733,220.800 39.042 " stroke="none" fill="#f2f2f2" fill-rule="evenodd"></path><path id="path1" d="M234.232 44.070 C 233.696 45.783,233.674 58.853,234.206 59.058 C 234.645 59.226,244.094 56.265,244.747 55.754 C 244.911 55.626,242.456 52.639,238.208 47.802 C 234.193 43.229,234.427 43.449,234.232 44.070 M245.400 62.065 C 244.080 62.470,242.640 62.962,242.200 63.156 C 241.760 63.350,239.879 63.988,238.020 64.572 C 233.233 66.077,233.600 65.207,233.600 75.049 C 233.600 83.243,233.632 83.600,234.375 83.600 C 235.088 83.600,239.526 82.319,243.400 80.995 C 244.280 80.695,245.738 80.258,246.640 80.025 L 248.279 79.602 248.524 71.701 C 248.659 67.355,248.883 63.410,249.022 62.934 C 249.439 61.510,248.184 61.209,245.400 62.065 M255.018 68.900 C 254.742 69.774,254.491 84.000,254.751 83.990 C 256.396 83.927,264.531 80.972,264.968 80.278 C 265.343 79.685,264.623 78.599,261.600 75.200 C 261.111 74.650,259.627 72.895,258.302 71.300 C 255.885 68.391,255.310 67.971,255.018 68.900 M197.724 71.400 C 197.726 72.720,197.801 73.212,197.890 72.493 C 197.979 71.774,197.977 70.694,197.886 70.093 C 197.795 69.492,197.722 70.080,197.724 71.400 M151.425 71.261 C 151.310 71.778,151.167 75.530,151.108 79.600 C 150.986 87.956,150.781 87.529,154.181 85.999 C 155.072 85.598,157.559 84.513,159.709 83.588 L 163.617 81.905 159.709 78.019 C 152.496 70.847,151.668 70.172,151.425 71.261 M226.131 79.400 C 226.133 80.940,226.205 81.521,226.292 80.691 C 226.379 79.861,226.377 78.601,226.289 77.891 C 226.200 77.181,226.129 77.860,226.131 79.400 M266.600 86.585 C 263.547 87.601,254.695 90.772,254.597 90.886 C 254.304 91.226,253.984 105.143,254.265 105.316 C 254.449 105.429,255.320 105.292,256.200 105.011 C 257.080 104.731,259.150 104.094,260.800 103.596 C 270.949 100.533,269.863 101.756,270.120 93.100 L 270.331 86.000 269.266 86.027 C 268.680 86.041,267.480 86.293,266.600 86.585 M161.400 89.459 C 159.640 90.217,157.480 91.175,156.600 91.585 C 155.720 91.996,154.072 92.722,152.938 93.199 C 151.585 93.768,150.796 94.364,150.644 94.933 C 150.269 96.328,150.366 112.800,150.748 112.800 C 151.458 112.800,164.766 108.167,165.145 107.788 C 165.395 107.538,165.935 97.160,165.972 91.900 C 166.005 87.299,166.185 87.395,161.400 89.459 M172.279 91.081 C 172.173 91.256,171.955 94.412,171.795 98.094 C 171.451 105.981,171.311 105.759,175.660 104.204 C 177.277 103.626,179.410 102.894,180.400 102.578 C 183.814 101.487,183.861 101.644,178.578 96.498 C 172.946 91.010,172.534 90.656,172.279 91.081 M276.263 96.300 C 275.628 105.082,275.269 113.829,275.534 114.094 C 275.698 114.258,276.725 114.062,277.816 113.658 C 280.263 112.753,285.781 110.540,287.400 109.815 C 288.060 109.519,288.932 109.169,289.337 109.037 C 290.260 108.736,289.485 107.673,282.600 99.805 C 279.960 96.787,277.600 94.067,277.356 93.759 C 276.610 92.820,276.496 93.087,276.263 96.300 M245.293 100.400 C 245.293 101.170,245.375 101.485,245.476 101.100 C 245.576 100.715,245.576 100.085,245.476 99.700 C 245.375 99.315,245.293 99.630,245.293 100.400 M262.400 109.414 C 260.750 109.944,258.410 110.678,257.200 111.044 C 251.590 112.742,252.120 111.696,251.660 121.985 C 251.309 129.866,251.498 129.602,244.650 131.759 C 240.124 133.184,240.030 133.238,239.849 134.506 C 239.556 136.566,238.793 145.674,238.797 147.078 C 238.803 149.329,237.249 150.481,232.103 152.042 C 231.260 152.298,230.744 152.744,230.628 153.318 C 230.341 154.744,229.515 184.049,229.756 184.289 C 229.995 184.529,240.344 181.197,243.000 180.025 C 243.440 179.831,244.088 179.582,244.440 179.472 C 244.988 179.300,245.117 178.077,245.341 170.936 C 245.686 159.936,246.222 152.897,246.764 152.244 C 247.005 151.953,249.587 150.940,252.502 149.994 C 259.324 147.778,258.806 148.460,259.222 141.150 C 259.415 137.767,259.753 133.200,259.975 131.000 C 260.196 128.800,260.486 125.740,260.620 124.200 C 260.929 120.635,262.009 119.491,266.257 118.228 C 267.381 117.894,267.588 116.977,267.595 112.300 L 267.600 108.400 266.500 108.425 C 265.895 108.439,264.050 108.884,262.400 109.414 M284.600 117.453 C 281.080 118.871,277.570 120.338,276.800 120.715 L 275.400 121.400 275.154 125.600 C 274.881 130.253,275.033 130.702,276.678 130.114 C 277.295 129.893,278.790 129.419,280.000 129.060 C 281.210 128.701,283.730 127.949,285.600 127.388 C 287.470 126.827,289.666 126.170,290.479 125.927 C 292.331 125.374,292.340 125.350,292.646 119.577 L 292.900 114.800 291.950 114.838 C 291.428 114.859,288.120 116.036,284.600 117.453 M142.893 116.800 C 142.893 117.570,142.975 117.885,143.076 117.500 C 143.176 117.115,143.176 116.485,143.076 116.100 C 142.975 115.715,142.893 116.030,142.893 116.800 M112.920 121.200 C 112.920 122.410,112.995 122.905,113.087 122.300 C 113.178 121.695,113.178 120.705,113.087 120.100 C 112.995 119.495,112.920 119.990,112.920 121.200 M265.842 133.700 C 265.221 138.791,265.158 145.799,265.738 145.200 C 266.464 144.451,267.151 132.000,266.467 132.000 C 266.237 132.000,265.956 132.765,265.842 133.700 M283.200 134.452 C 281.110 135.105,278.140 136.016,276.600 136.477 C 272.607 137.674,272.670 137.567,272.371 143.606 C 272.064 149.797,271.949 149.991,267.842 151.290 C 264.062 152.484,264.419 151.423,263.567 164.000 C 262.445 180.556,262.768 179.734,256.600 181.769 C 254.180 182.568,251.930 183.390,251.600 183.596 C 251.114 183.899,250.953 185.475,250.750 191.885 C 250.613 196.238,250.274 203.631,249.998 208.314 C 249.418 218.135,249.222 217.499,252.552 216.598 C 258.325 215.035,258.273 214.867,257.669 233.330 C 257.402 241.509,257.187 250.408,257.191 253.108 L 257.200 258.015 258.300 257.751 C 258.905 257.606,259.850 257.268,260.400 257.000 C 260.950 256.732,261.875 256.399,262.456 256.260 C 263.950 255.902,263.950 255.900,264.208 244.500 C 264.336 238.835,264.610 232.040,264.817 229.400 C 265.024 226.760,265.370 218.390,265.586 210.800 C 266.267 186.842,266.822 178.406,267.784 177.376 C 268.512 176.597,273.987 174.400,275.202 174.400 C 275.465 174.400,276.246 174.146,276.940 173.836 C 277.633 173.525,280.000 172.693,282.200 171.986 C 284.400 171.279,286.329 170.585,286.486 170.444 C 286.983 169.999,287.702 157.970,288.217 141.500 C 288.520 131.840,289.074 132.620,283.200 134.452 M232.353 135.888 C 231.109 136.177,230.338 145.600,231.558 145.600 C 232.654 145.600,232.684 145.511,233.230 140.659 C 233.720 136.312,233.589 135.602,232.353 135.888 M299.063 151.470 C 298.370 152.163,298.783 160.459,299.500 160.250 C 307.416 157.949,307.092 158.379,303.481 154.953 C 299.848 151.505,299.389 151.144,299.063 151.470 M170.800 152.460 C 169.840 152.854,166.924 153.693,161.800 155.050 C 160.480 155.400,159.220 155.821,159.000 155.987 C 158.780 156.152,157.987 156.404,157.238 156.546 C 154.821 157.005,154.800 157.073,154.800 164.230 C 154.800 172.127,153.804 174.386,150.316 174.402 C 150.032 174.404,149.325 174.653,148.745 174.955 C 148.165 175.258,146.784 175.807,145.676 176.175 C 143.011 177.060,142.515 177.958,140.584 185.400 C 139.357 190.124,138.748 192.250,138.403 193.000 C 138.076 193.714,136.413 199.431,134.389 206.800 C 133.997 208.230,133.390 210.300,133.042 211.400 C 131.950 214.848,132.000 214.879,136.538 213.583 C 144.057 211.435,143.793 211.554,144.453 210.026 C 144.993 208.776,145.445 208.459,148.118 207.453 L 151.167 206.307 151.810 204.253 C 152.164 203.124,152.699 201.570,152.999 200.800 C 153.300 200.030,155.035 194.810,156.856 189.200 C 160.810 177.017,160.423 177.542,167.000 175.425 C 173.280 173.404,172.747 174.295,173.000 165.394 C 173.119 161.217,173.301 156.495,173.403 154.900 C 173.608 151.711,173.311 151.432,170.800 152.460 M182.400 154.429 C 181.410 154.869,180.330 155.377,180.000 155.558 C 179.300 155.941,178.867 171.200,179.556 171.200 C 181.202 171.200,184.406 169.405,184.475 168.444 C 184.516 167.870,184.596 166.860,184.654 166.200 C 184.712 165.540,184.886 162.435,185.041 159.300 C 185.358 152.884,185.459 153.070,182.400 154.429 M254.872 155.561 C 251.903 156.587,252.061 156.073,251.640 166.079 C 251.215 176.180,251.281 176.943,252.550 176.576 C 253.660 176.255,256.166 175.446,256.321 175.359 C 256.510 175.253,257.500 164.733,257.814 159.500 C 258.133 154.175,258.288 154.381,254.872 155.561 M147.658 161.031 C 147.406 161.585,147.200 162.276,147.200 162.567 C 147.200 162.858,146.840 164.223,146.400 165.600 C 145.321 168.976,145.341 169.731,146.500 169.384 C 148.099 168.905,148.365 168.281,148.640 164.358 C 148.918 160.400,148.536 159.105,147.658 161.031 M222.901 163.800 C 222.905 164.680,222.987 164.993,223.083 164.495 C 223.179 163.998,223.175 163.278,223.075 162.895 C 222.975 162.513,222.896 162.920,222.901 163.800 M305.000 164.950 C 297.914 167.229,296.264 167.650,294.881 167.530 L 293.400 167.401 293.154 170.426 C 292.761 175.257,293.744 174.652,277.800 179.868 C 276.040 180.444,274.220 181.054,273.755 181.224 C 272.665 181.622,272.526 183.270,271.997 202.000 C 271.776 209.810,271.421 219.170,271.208 222.800 C 270.995 226.430,270.615 235.970,270.364 244.000 C 269.819 261.379,270.086 260.653,263.592 262.402 C 262.753 262.628,261.557 263.079,260.933 263.404 C 260.310 263.729,259.415 263.996,258.944 263.998 C 256.429 264.005,256.384 264.214,255.991 278.004 C 255.471 296.193,255.463 295.734,256.300 295.484 C 256.685 295.369,259.610 294.346,262.800 293.211 C 265.990 292.075,269.050 290.991,269.600 290.801 C 270.150 290.611,272.670 289.703,275.200 288.783 C 277.730 287.863,280.700 286.840,281.800 286.510 C 282.900 286.179,283.971 285.749,284.180 285.554 C 284.389 285.360,284.873 285.200,285.256 285.200 C 286.375 285.200,286.434 284.831,286.802 275.497 C 286.996 270.604,287.340 263.180,287.567 259.000 C 287.794 254.820,288.174 246.900,288.413 241.400 C 288.651 235.900,289.100 226.180,289.412 219.800 C 289.723 213.420,289.983 207.928,289.989 207.596 C 290.024 205.657,294.353 203.769,307.441 199.983 L 309.082 199.509 309.333 194.847 C 309.470 192.283,309.706 184.293,309.856 177.093 L 310.129 164.000 308.964 164.025 C 308.324 164.039,306.540 164.455,305.000 164.950 M95.600 174.406 C 86.804 176.764,87.060 176.070,92.802 181.985 C 95.442 184.705,97.662 186.857,97.736 186.766 C 98.089 186.327,98.857 174.301,98.549 174.024 C 98.357 173.850,97.030 174.022,95.600 174.406 M181.600 176.969 L 179.000 177.870 178.684 189.351 C 178.279 204.061,178.935 202.701,170.843 205.599 C 156.066 210.890,156.081 210.883,155.776 212.317 C 155.650 212.913,155.121 214.660,154.602 216.200 C 154.083 217.740,152.651 222.124,151.421 225.943 L 149.184 232.886 148.929 239.643 C 148.705 245.593,148.748 246.400,149.295 246.400 C 149.858 246.400,151.323 246.004,157.400 244.211 C 158.500 243.886,161.200 243.157,163.400 242.590 C 165.600 242.022,168.210 241.314,169.200 241.015 C 170.190 240.716,171.469 240.368,172.042 240.242 C 173.194 239.990,173.243 239.857,177.033 226.600 C 177.599 224.620,178.614 221.204,179.288 219.009 C 179.963 216.815,180.747 214.115,181.031 213.009 C 181.315 211.904,181.914 209.740,182.362 208.200 C 183.338 204.842,185.046 176.909,184.319 176.187 C 184.254 176.122,183.030 176.474,181.600 176.969 M168.600 181.250 C 165.581 182.286,165.303 182.524,164.760 184.547 C 164.516 185.456,164.080 186.830,163.789 187.600 C 163.499 188.370,162.716 190.710,162.049 192.800 C 160.791 196.739,160.277 198.296,159.348 200.981 C 158.630 203.056,159.102 203.527,161.087 202.712 C 161.919 202.370,163.950 201.600,165.600 201.000 C 169.740 199.496,171.754 198.693,172.060 198.426 C 172.203 198.302,172.449 194.195,172.607 189.300 L 172.893 180.400 171.947 180.413 C 171.426 180.421,169.920 180.797,168.600 181.250 M191.293 182.400 C 191.293 183.170,191.375 183.485,191.476 183.100 C 191.576 182.715,191.576 182.085,191.476 181.700 C 191.375 181.315,191.293 181.630,191.293 182.400 M241.800 186.850 C 241.140 187.063,240.060 187.484,239.400 187.785 C 238.740 188.087,237.728 188.436,237.151 188.562 C 234.463 189.146,234.427 189.274,234.003 199.600 C 233.222 218.636,233.250 222.089,234.184 221.872 C 239.519 220.632,243.173 219.373,243.369 218.706 C 243.451 218.428,243.720 213.520,243.968 207.800 C 244.216 202.080,244.530 194.925,244.666 191.900 L 244.912 186.400 243.956 186.432 C 243.430 186.449,242.460 186.637,241.800 186.850 M221.301 204.600 C 221.305 205.480,221.387 205.793,221.483 205.295 C 221.579 204.798,221.575 204.078,221.475 203.695 C 221.375 203.313,221.296 203.720,221.301 204.600 M225.400 215.852 C 224.520 216.160,223.440 216.580,223.000 216.788 C 222.560 216.995,221.300 217.432,220.200 217.759 C 211.471 220.354,211.200 220.575,211.200 225.122 L 211.200 228.491 212.300 228.284 C 213.473 228.063,220.038 226.167,224.500 224.761 L 227.200 223.910 227.200 219.555 C 227.200 217.160,227.155 215.221,227.100 215.247 C 227.045 215.272,226.280 215.545,225.400 215.852 M142.361 218.173 C 142.147 218.386,137.097 219.823,133.600 220.665 C 130.580 221.392,129.741 222.005,129.392 223.741 C 129.253 224.434,128.903 225.720,128.615 226.600 C 128.327 227.480,127.711 229.505,127.246 231.100 C 125.448 237.263,124.791 239.523,123.788 243.000 C 123.216 244.980,122.504 247.410,122.206 248.400 C 121.908 249.390,121.290 251.505,120.832 253.100 C 120.374 254.695,119.637 257.215,119.194 258.700 C 118.751 260.185,117.939 262.999,117.391 264.953 C 116.843 266.908,116.120 269.338,115.783 270.353 C 115.249 271.962,114.448 274.749,112.161 282.959 C 111.564 285.101,110.604 286.800,109.991 286.800 C 108.903 286.800,109.843 287.957,111.700 288.904 C 112.855 289.493,115.626 290.966,117.859 292.178 C 122.686 294.799,122.018 295.319,124.766 286.800 C 125.937 283.170,127.051 279.840,127.242 279.400 C 127.434 278.960,128.205 276.620,128.956 274.200 C 129.707 271.780,130.510 269.350,130.741 268.800 C 130.972 268.250,132.353 264.020,133.811 259.400 C 135.269 254.780,136.616 250.640,136.806 250.200 C 136.995 249.760,137.724 247.600,138.425 245.400 C 139.127 243.200,140.296 239.600,141.023 237.400 C 143.021 231.355,143.210 230.409,143.606 224.507 C 143.981 218.916,143.593 216.941,142.361 218.173 M202.400 224.005 C 200.970 224.399,198.810 225.106,197.600 225.575 C 188.902 228.949,185.644 229.667,184.063 228.559 C 182.939 227.772,183.015 227.688,182.210 230.600 C 180.457 236.938,180.063 238.281,179.648 239.326 C 179.401 239.945,179.200 241.212,179.200 242.141 C 179.200 243.104,178.272 246.663,177.043 250.415 C 175.857 254.037,173.953 259.970,172.811 263.600 C 171.670 267.230,170.646 270.470,170.536 270.800 C 170.425 271.130,169.718 273.560,168.965 276.200 C 167.626 280.891,167.217 282.291,165.634 287.600 C 165.207 289.030,164.487 291.460,164.034 293.000 C 163.580 294.540,162.757 297.294,162.205 299.121 C 161.652 300.947,161.200 302.704,161.200 303.026 C 161.200 303.348,161.029 303.923,160.821 304.305 C 160.612 304.687,159.889 306.980,159.213 309.400 C 157.740 314.678,157.373 315.942,154.388 326.000 C 153.023 330.603,152.769 331.166,151.675 332.027 C 150.372 333.052,149.021 336.703,149.661 337.473 C 150.453 338.428,169.888 351.200,170.548 351.200 C 170.916 351.200,171.288 350.737,171.430 350.100 C 171.565 349.495,171.908 348.280,172.192 347.400 C 172.476 346.520,173.104 344.450,173.587 342.800 C 175.647 335.765,176.041 334.433,176.995 331.279 C 177.548 329.453,178.000 327.696,178.000 327.374 C 178.000 327.052,178.171 326.477,178.379 326.095 C 178.588 325.713,179.315 323.420,179.994 321.000 C 180.673 318.580,181.757 314.890,182.402 312.800 C 183.047 310.710,183.842 308.010,184.167 306.800 C 184.682 304.889,185.505 302.069,188.197 293.000 C 188.524 291.900,189.142 289.830,189.572 288.400 C 190.002 286.970,191.181 282.920,192.192 279.400 C 193.204 275.880,194.558 271.290,195.203 269.200 C 195.848 267.110,196.672 264.320,197.035 263.000 C 198.689 256.981,199.190 255.223,199.968 252.700 C 200.425 251.215,201.140 248.856,201.556 247.457 C 202.483 244.333,203.002 243.334,203.960 242.822 C 204.637 242.459,205.765 223.997,205.145 223.423 C 205.065 223.349,203.830 223.611,202.400 224.005 M249.454 225.456 C 249.314 226.477,249.200 228.733,249.200 230.470 C 249.200 232.658,249.008 233.921,248.576 234.580 C 247.867 235.663,247.980 235.609,242.600 237.455 C 240.400 238.210,238.330 238.939,238.000 239.075 C 237.670 239.211,236.320 239.700,235.000 240.161 C 232.968 240.871,232.591 241.154,232.543 242.000 C 232.410 244.353,231.604 264.702,231.602 265.747 C 231.600 267.146,231.623 267.143,238.000 264.827 C 240.530 263.908,243.680 262.812,245.000 262.393 C 250.025 260.794,250.432 260.605,250.594 259.800 C 250.848 258.541,251.607 235.616,251.603 229.300 L 251.600 223.600 250.654 223.600 C 249.833 223.600,249.675 223.843,249.454 225.456 M241.000 226.263 C 240.120 226.571,238.050 227.229,236.400 227.725 L 233.400 228.628 233.033 230.927 C 232.549 233.965,232.921 234.352,235.485 233.479 C 243.621 230.707,243.200 230.997,243.200 228.175 C 243.200 225.647,243.074 225.538,241.000 226.263 M223.400 231.448 C 213.505 234.241,213.734 234.129,213.044 236.542 C 211.884 240.598,211.790 241.755,212.644 241.476 C 213.060 241.340,215.740 240.402,218.600 239.391 C 221.460 238.380,224.365 237.381,225.055 237.170 C 226.484 236.734,226.786 235.992,226.795 232.900 C 226.801 230.516,226.761 230.499,223.400 231.448 M223.862 243.872 C 223.712 244.021,221.387 244.891,218.695 245.804 C 216.003 246.718,213.800 247.676,213.800 247.935 C 213.800 248.536,223.940 260.740,224.839 261.221 C 225.731 261.698,225.843 260.686,225.963 251.100 L 226.057 243.600 225.095 243.600 C 224.566 243.600,224.011 243.722,223.862 243.872 M166.800 247.986 C 165.370 248.379,162.400 249.192,160.200 249.792 C 158.000 250.393,155.390 251.116,154.400 251.400 C 145.888 253.845,145.208 253.986,144.190 253.523 C 142.811 252.894,142.778 252.951,140.608 259.800 C 139.563 263.100,138.209 267.330,137.600 269.200 C 136.991 271.070,135.549 275.570,134.397 279.200 C 133.245 282.830,131.800 287.330,131.187 289.200 C 130.574 291.070,129.138 295.570,127.996 299.200 C 126.854 302.830,125.646 306.558,125.311 307.485 C 124.499 309.735,124.650 309.983,128.061 312.002 C 131.556 314.071,136.804 317.404,137.483 317.986 C 137.749 318.214,138.073 318.400,138.203 318.400 C 138.333 318.400,139.523 319.120,140.848 320.000 C 142.173 320.880,143.338 321.600,143.437 321.600 C 143.536 321.600,144.337 322.076,145.217 322.659 C 146.096 323.241,146.885 323.646,146.969 323.559 C 147.299 323.218,155.600 297.570,155.600 296.893 C 155.600 296.637,155.857 295.836,156.170 295.114 C 156.484 294.391,157.227 292.180,157.823 290.200 C 158.418 288.220,159.143 285.970,159.433 285.200 C 159.724 284.430,160.890 280.830,162.024 277.200 C 163.159 273.570,164.597 268.980,165.219 267.000 C 165.841 265.020,166.817 261.780,167.388 259.800 C 168.826 254.809,169.621 252.100,170.257 250.029 C 171.236 246.838,171.152 246.788,166.800 247.986 M248.600 267.489 C 248.160 267.598,247.620 267.828,247.400 268.002 C 247.180 268.176,246.100 268.598,245.000 268.939 C 242.432 269.736,239.619 270.723,238.600 271.183 C 238.160 271.382,237.125 271.751,236.300 272.003 C 234.150 272.661,234.176 272.709,241.046 280.823 C 244.481 284.880,247.611 288.605,248.003 289.100 C 249.295 290.733,249.598 290.211,249.629 286.300 C 249.645 284.265,249.795 279.360,249.963 275.400 C 250.256 268.449,250.207 267.147,249.657 267.246 C 249.516 267.272,249.040 267.381,248.600 267.489 M114.107 297.988 C 114.410 298.422,115.806 299.989,117.207 301.471 L 119.755 304.165 120.260 302.982 C 120.537 302.332,120.772 301.584,120.782 301.319 C 120.799 300.861,117.462 298.738,115.081 297.691 C 113.578 297.031,113.461 297.066,114.107 297.988 M140.467 327.569 C 140.768 328.403,144.084 331.595,144.428 331.383 C 145.319 330.832,144.697 329.607,142.931 328.438 C 141.039 327.184,140.224 326.897,140.467 327.569 " stroke="none" fill="#e10505" fill-rule="evenodd"></path><path id="path2" d="M227.900 28.081 C 227.075 28.300,226.400 28.620,226.400 28.792 C 226.400 28.964,225.590 29.309,224.600 29.558 C 223.610 29.808,222.800 30.171,222.800 30.366 C 222.800 30.561,221.900 30.936,220.800 31.200 C 219.700 31.464,218.800 31.803,218.800 31.953 C 218.800 32.103,217.990 32.465,217.000 32.757 C 216.010 33.049,215.200 33.428,215.200 33.600 C 215.200 33.771,214.576 34.028,213.813 34.171 C 213.050 34.314,212.195 34.660,211.913 34.939 C 211.631 35.218,210.545 35.684,209.500 35.975 C 208.455 36.266,207.600 36.621,207.600 36.765 C 207.600 36.908,206.790 37.265,205.800 37.557 C 204.810 37.849,204.000 38.228,204.000 38.400 C 204.000 38.571,203.376 38.828,202.613 38.971 C 201.850 39.114,200.995 39.460,200.713 39.739 C 200.431 40.018,199.345 40.484,198.300 40.775 C 197.255 41.066,196.400 41.417,196.400 41.555 C 196.400 41.692,195.693 42.026,194.828 42.296 C 193.963 42.566,192.773 43.234,192.183 43.781 L 191.110 44.775 190.895 60.988 C 190.777 69.904,190.527 77.200,190.340 77.200 C 190.153 77.200,190.000 81.276,190.000 86.258 L 190.000 95.317 184.564 89.858 C 181.574 86.856,178.986 84.400,178.812 84.400 C 178.639 84.400,174.000 79.900,168.503 74.400 C 163.006 68.900,158.389 64.400,158.244 64.400 C 158.098 64.400,156.263 62.670,154.166 60.555 L 150.352 56.710 147.748 56.876 C 146.317 56.967,145.023 57.232,144.873 57.464 C 144.723 57.697,143.925 58.129,143.100 58.424 C 142.275 58.719,141.600 59.083,141.600 59.233 C 141.600 59.383,140.790 59.709,139.800 59.958 C 138.810 60.208,138.000 60.560,138.000 60.742 C 138.000 60.924,137.280 61.289,136.400 61.553 C 135.520 61.816,134.800 62.176,134.800 62.353 C 134.800 62.529,134.080 62.889,133.200 63.153 C 132.320 63.416,131.600 63.787,131.600 63.976 C 131.600 64.165,130.700 64.536,129.600 64.800 C 128.500 65.064,127.600 65.435,127.600 65.624 C 127.600 65.813,126.880 66.184,126.000 66.447 C 125.120 66.711,124.400 67.064,124.400 67.232 C 124.400 67.400,123.730 67.759,122.911 68.029 C 122.092 68.300,121.186 68.757,120.898 69.045 C 120.610 69.333,119.750 69.686,118.987 69.829 C 118.224 69.972,117.600 70.220,117.600 70.380 C 117.600 70.541,116.880 70.910,116.000 71.200 C 115.120 71.490,114.400 71.850,114.400 72.000 C 114.400 72.150,113.680 72.510,112.800 72.800 C 111.920 73.090,111.200 73.450,111.200 73.600 C 111.200 73.750,110.480 74.110,109.600 74.400 C 108.720 74.690,108.000 75.066,108.000 75.235 C 108.000 75.405,107.735 75.808,107.412 76.131 C 106.841 76.701,106.010 100.974,106.002 117.282 L 106.000 122.364 104.600 122.626 C 103.830 122.771,103.200 123.031,103.200 123.205 C 103.200 123.378,102.259 123.746,101.110 124.022 C 99.960 124.297,98.794 124.749,98.518 125.025 C 98.242 125.301,97.292 125.649,96.408 125.799 C 95.524 125.948,94.800 126.206,94.800 126.371 C 94.800 126.537,93.810 126.910,92.600 127.200 C 91.390 127.490,90.400 127.850,90.400 128.000 C 90.400 128.150,89.410 128.510,88.200 128.800 C 86.990 129.090,86.000 129.446,86.000 129.592 C 86.000 129.737,85.100 130.100,84.000 130.400 C 82.900 130.700,82.000 131.072,82.000 131.228 C 82.000 131.384,81.415 131.624,80.700 131.762 C 77.815 132.320,77.642 132.881,77.345 142.651 C 77.199 147.463,76.955 151.490,76.803 151.600 C 76.290 151.971,75.688 176.105,76.165 177.195 C 76.404 177.742,81.055 182.647,86.500 188.094 C 95.487 197.086,97.575 199.600,96.055 199.600 C 95.865 199.600,95.480 200.680,95.200 202.000 C 94.920 203.320,94.560 204.400,94.400 204.400 C 94.240 204.400,93.880 205.480,93.600 206.800 C 93.320 208.120,92.952 209.200,92.781 209.200 C 92.611 209.200,92.260 210.460,92.000 212.000 C 91.740 213.540,91.389 214.800,91.219 214.800 C 91.048 214.800,90.680 215.880,90.400 217.200 C 90.120 218.520,89.755 219.600,89.589 219.600 C 89.423 219.600,89.054 220.770,88.770 222.200 C 88.486 223.630,88.115 224.800,87.947 224.800 C 87.778 224.800,87.428 225.880,87.168 227.200 C 86.908 228.520,86.564 229.600,86.403 229.600 C 86.241 229.600,85.880 230.680,85.600 232.000 C 85.320 233.320,84.960 234.400,84.800 234.400 C 84.640 234.400,84.280 235.480,84.000 236.800 C 83.720 238.120,83.368 239.200,83.219 239.200 C 83.069 239.200,82.714 240.370,82.430 241.800 C 82.146 243.230,81.781 244.400,81.620 244.400 C 81.459 244.400,81.097 245.435,80.815 246.700 C 80.534 247.965,80.162 249.091,79.988 249.201 C 79.814 249.312,79.435 250.572,79.145 252.001 C 78.856 253.431,78.397 254.831,78.125 255.113 C 77.854 255.395,77.514 256.250,77.371 257.013 C 77.228 257.776,76.980 258.400,76.820 258.400 C 76.659 258.400,76.282 259.165,75.981 260.100 C 75.680 261.035,75.246 261.928,75.017 262.085 C 73.849 262.885,74.552 266.997,76.100 268.418 C 76.925 269.175,77.600 269.946,77.600 270.132 C 77.600 270.317,78.590 271.436,79.800 272.617 C 81.010 273.799,82.003 274.908,82.006 275.083 C 82.010 275.257,82.910 276.273,84.006 277.339 C 85.103 278.406,86.000 279.433,86.000 279.622 C 86.000 279.811,86.990 280.933,88.200 282.114 C 89.410 283.295,90.400 284.399,90.400 284.566 C 90.400 284.733,91.390 285.836,92.600 287.017 C 93.810 288.199,94.803 289.308,94.806 289.483 C 94.810 289.657,95.710 290.673,96.806 291.739 C 97.903 292.806,98.800 293.821,98.800 293.995 C 98.800 294.169,99.793 295.367,101.007 296.656 C 102.221 297.945,103.929 299.810,104.803 300.800 C 105.677 301.790,107.474 303.753,108.796 305.163 C 110.118 306.572,111.200 307.849,111.200 308.000 C 111.200 308.151,112.282 309.428,113.604 310.837 C 114.926 312.247,116.724 314.210,117.600 315.200 C 118.476 316.190,120.274 318.153,121.596 319.563 C 122.918 320.972,124.000 322.249,124.000 322.400 C 124.000 322.656,126.653 325.586,130.395 329.463 C 131.278 330.377,132.000 331.263,132.000 331.432 C 132.000 331.600,132.985 332.700,134.190 333.876 C 135.394 335.051,136.582 336.393,136.830 336.857 C 137.079 337.320,137.983 338.345,138.841 339.133 C 139.698 339.922,140.400 340.709,140.400 340.884 C 140.400 341.476,143.475 344.278,144.740 344.837 C 145.433 345.144,146.000 345.536,146.000 345.708 C 146.000 345.879,146.450 346.191,147.000 346.400 C 147.550 346.609,148.000 346.931,148.000 347.115 C 148.000 347.300,148.630 347.698,149.400 348.000 C 150.170 348.302,150.800 348.700,150.800 348.885 C 150.800 349.069,151.250 349.391,151.800 349.600 C 152.350 349.809,152.800 350.131,152.800 350.315 C 152.800 350.500,153.430 350.898,154.200 351.200 C 154.970 351.502,155.600 351.900,155.600 352.085 C 155.600 352.269,156.050 352.591,156.600 352.800 C 157.150 353.009,157.600 353.331,157.600 353.515 C 157.600 353.700,158.230 354.098,159.000 354.400 C 159.770 354.702,160.400 355.100,160.400 355.285 C 160.400 355.469,160.850 355.791,161.400 356.000 C 161.950 356.209,162.400 356.531,162.400 356.715 C 162.400 356.900,163.030 357.298,163.800 357.600 C 164.570 357.902,165.200 358.300,165.200 358.485 C 165.200 358.669,165.650 358.991,166.200 359.200 C 166.750 359.409,167.200 359.721,167.200 359.892 C 167.200 360.064,167.785 360.461,168.500 360.775 C 169.215 361.089,170.001 361.614,170.246 361.943 C 171.017 362.976,175.346 363.070,176.255 362.074 C 177.656 360.538,177.816 360.197,178.344 357.601 C 178.634 356.172,179.006 354.912,179.169 354.801 C 179.332 354.691,179.706 353.430,180.000 352.000 C 180.294 350.570,180.676 349.305,180.849 349.188 C 181.021 349.071,181.392 347.766,181.673 346.288 C 181.953 344.810,182.302 343.600,182.448 343.600 C 182.594 343.600,182.946 342.430,183.230 341.000 C 183.514 339.570,183.873 338.400,184.028 338.400 C 184.183 338.400,184.530 337.230,184.800 335.800 C 185.070 334.370,185.434 333.200,185.609 333.200 C 185.784 333.200,186.140 331.940,186.400 330.400 C 186.660 328.860,187.003 327.600,187.163 327.600 C 187.323 327.600,187.692 326.385,187.984 324.900 C 188.276 323.415,188.661 322.105,188.839 321.988 C 189.017 321.871,189.392 320.566,189.673 319.088 C 189.953 317.610,190.301 316.400,190.446 316.400 C 190.591 316.400,190.930 315.230,191.200 313.800 C 191.470 312.370,191.830 311.200,192.000 311.200 C 192.170 311.200,192.530 310.030,192.800 308.600 C 193.070 307.170,193.414 306.000,193.566 306.000 C 193.717 306.000,194.081 304.650,194.374 303.000 C 194.667 301.350,195.043 300.000,195.210 300.000 C 195.377 300.000,195.746 298.830,196.030 297.400 C 196.314 295.970,196.677 294.800,196.837 294.800 C 196.997 294.800,197.340 293.540,197.600 292.000 C 197.860 290.460,198.216 289.200,198.391 289.200 C 198.566 289.200,198.930 288.030,199.200 286.600 C 199.470 285.170,199.817 284.000,199.972 284.000 C 200.127 284.000,200.486 282.830,200.770 281.400 C 201.054 279.970,201.411 278.800,201.564 278.800 C 201.716 278.800,202.081 277.450,202.374 275.800 C 202.667 274.150,203.043 272.800,203.210 272.800 C 203.377 272.800,203.746 271.630,204.030 270.200 C 204.314 268.770,204.677 267.600,204.837 267.600 C 204.997 267.600,205.340 266.340,205.600 264.800 C 205.860 263.260,206.216 262.000,206.391 262.000 C 206.566 262.000,206.930 260.830,207.200 259.400 C 207.470 257.970,207.850 256.800,208.045 256.800 C 208.240 256.800,208.414 256.485,208.432 256.100 C 208.457 255.546,208.509 255.525,208.683 256.000 C 208.804 256.330,209.491 257.166,210.208 257.858 C 210.926 258.551,211.698 259.446,211.924 259.849 C 212.371 260.648,214.150 262.735,216.500 265.216 C 217.325 266.087,218.000 266.936,218.000 267.101 C 218.000 267.267,218.540 267.912,219.200 268.535 C 219.860 269.158,220.400 269.838,220.400 270.046 C 220.400 270.254,221.030 271.003,221.800 271.710 C 222.570 272.416,223.202 273.176,223.204 273.397 C 223.206 273.619,223.924 274.430,224.800 275.200 C 225.676 275.970,226.394 276.781,226.396 277.003 C 226.398 277.224,227.030 277.984,227.800 278.690 C 228.570 279.397,229.200 280.122,229.200 280.302 C 229.200 280.482,230.009 281.523,230.998 282.615 C 231.987 283.707,233.158 285.050,233.600 285.600 C 234.042 286.150,235.213 287.493,236.202 288.585 C 237.191 289.677,238.000 290.718,238.000 290.898 C 238.000 291.078,238.630 291.803,239.400 292.510 C 240.170 293.216,240.802 293.976,240.804 294.197 C 240.806 294.419,241.524 295.230,242.400 296.000 C 243.276 296.770,243.994 297.581,243.996 297.803 C 243.998 298.024,244.630 298.784,245.400 299.490 C 246.170 300.197,246.800 300.937,246.800 301.135 C 246.800 301.711,250.450 305.200,251.053 305.200 C 251.354 305.200,251.600 305.380,251.600 305.600 C 251.600 305.820,252.140 306.000,252.800 306.000 C 253.460 306.000,254.000 305.849,254.000 305.664 C 254.000 305.479,254.990 305.106,256.200 304.835 C 257.410 304.564,258.400 304.200,258.400 304.026 C 258.400 303.852,259.480 303.480,260.800 303.200 C 262.120 302.920,263.200 302.564,263.200 302.409 C 263.200 302.254,264.190 301.906,265.400 301.635 C 266.610 301.364,267.600 301.000,267.600 300.826 C 267.600 300.652,268.680 300.280,270.000 300.000 C 271.320 299.720,272.400 299.368,272.400 299.218 C 272.400 299.067,273.300 298.700,274.400 298.400 C 275.500 298.100,276.400 297.733,276.400 297.582 C 276.400 297.432,277.480 297.080,278.800 296.800 C 280.120 296.520,281.200 296.164,281.200 296.009 C 281.200 295.854,282.190 295.490,283.400 295.200 C 284.610 294.910,285.600 294.546,285.600 294.391 C 285.600 294.236,286.680 293.880,288.000 293.600 C 289.320 293.320,290.400 292.958,290.400 292.795 C 290.400 292.633,290.965 292.387,291.655 292.249 C 292.345 292.111,293.378 291.503,293.950 290.899 L 294.989 289.800 295.355 278.000 C 295.556 271.510,295.849 266.110,296.005 266.000 C 296.162 265.890,296.524 258.015,296.811 248.500 C 297.098 238.985,297.482 231.200,297.666 231.200 C 297.850 231.200,298.024 228.905,298.053 226.100 C 298.082 223.295,298.217 218.930,298.353 216.400 L 298.600 211.800 299.900 211.675 C 300.615 211.606,301.200 211.405,301.200 211.229 C 301.200 211.053,302.280 210.680,303.600 210.400 C 304.920 210.120,306.000 209.756,306.000 209.591 C 306.000 209.426,307.170 209.070,308.600 208.800 C 310.030 208.530,311.200 208.178,311.200 208.018 C 311.200 207.858,312.214 207.500,313.453 207.223 C 314.980 206.881,316.076 206.341,316.853 205.546 L 318.000 204.372 318.000 194.786 C 318.000 188.662,318.144 185.200,318.400 185.200 C 318.659 185.200,318.800 180.319,318.800 171.358 L 318.800 157.516 314.856 153.558 C 312.686 151.381,310.787 149.600,310.635 149.600 C 310.483 149.600,308.663 147.890,306.590 145.800 C 304.517 143.710,302.668 142.000,302.482 142.000 C 300.895 142.000,299.276 134.099,300.747 133.533 C 300.938 133.460,301.224 127.799,301.382 120.954 L 301.671 108.508 300.035 106.789 C 299.136 105.843,298.400 104.933,298.400 104.766 C 298.400 104.598,297.680 103.756,296.800 102.893 C 295.920 102.031,295.198 101.162,295.196 100.962 C 295.194 100.763,294.476 99.970,293.600 99.200 C 292.724 98.430,292.006 97.619,292.004 97.397 C 292.002 97.176,291.370 96.416,290.600 95.710 C 289.830 95.003,289.200 94.278,289.200 94.098 C 289.200 93.788,287.368 91.660,284.210 88.300 C 283.434 87.475,282.800 86.658,282.800 86.484 C 282.800 86.309,282.080 85.505,281.200 84.696 C 280.320 83.887,279.600 83.078,279.600 82.898 C 279.600 82.718,278.791 81.677,277.802 80.585 C 276.813 79.493,275.642 78.150,275.200 77.600 C 274.758 77.050,273.587 75.707,272.598 74.615 C 271.609 73.523,270.800 72.482,270.800 72.302 C 270.800 72.122,270.080 71.313,269.200 70.504 C 268.320 69.695,267.600 68.891,267.600 68.716 C 267.600 68.542,266.966 67.725,266.190 66.900 C 263.032 63.540,261.200 61.412,261.200 61.102 C 261.200 60.922,260.480 60.113,259.600 59.304 C 258.720 58.495,258.000 57.678,258.000 57.490 C 258.000 57.301,257.370 56.552,256.600 55.826 C 255.830 55.100,255.200 54.346,255.200 54.150 C 255.200 53.954,254.588 53.233,253.841 52.547 C 253.093 51.861,252.265 50.895,252.000 50.400 C 251.735 49.905,250.907 48.939,250.159 48.253 C 249.412 47.567,248.798 46.824,248.796 46.603 C 248.794 46.381,248.076 45.570,247.200 44.800 C 246.324 44.030,245.606 43.219,245.604 42.997 C 245.602 42.776,244.988 42.033,244.241 41.347 C 243.493 40.661,242.665 39.695,242.400 39.200 C 242.135 38.705,241.307 37.739,240.559 37.053 C 239.812 36.367,239.198 35.624,239.196 35.403 C 239.194 35.181,238.476 34.370,237.600 33.600 C 236.724 32.830,236.006 31.969,236.004 31.687 C 236.002 31.406,235.737 31.074,235.415 30.950 C 235.094 30.827,234.720 30.377,234.584 29.950 C 233.895 27.778,231.530 27.117,227.900 28.081 M227.009 51.700 C 226.868 60.115,226.584 71.230,226.378 76.400 C 225.835 90.006,225.822 89.727,227.036 91.169 C 228.134 92.475,229.801 92.785,231.681 92.032 C 232.187 91.830,234.220 91.183,236.200 90.593 C 238.180 90.004,241.125 89.089,242.746 88.561 C 244.366 88.032,245.761 87.600,245.846 87.600 C 246.135 87.600,245.980 95.389,245.615 99.200 C 245.415 101.290,245.123 107.725,244.967 113.500 C 244.780 120.371,244.530 124.113,244.241 124.327 C 243.998 124.507,239.806 125.968,234.924 127.576 C 223.185 131.440,224.348 129.752,223.950 143.494 C 223.772 149.602,223.442 157.750,223.216 161.600 C 222.991 165.450,222.620 175.080,222.392 183.000 C 222.165 190.920,221.804 199.840,221.589 202.823 C 221.375 205.805,221.200 208.607,221.200 209.049 C 221.200 209.684,220.635 210.042,218.500 210.762 C 217.015 211.262,215.440 211.829,215.000 212.022 C 213.926 212.492,209.737 213.936,208.000 214.435 C 207.230 214.657,206.240 215.009,205.800 215.219 C 205.360 215.429,204.190 215.853,203.200 216.160 C 200.874 216.883,193.238 219.537,192.200 219.983 C 189.995 220.932,189.999 220.934,190.018 218.487 C 190.038 215.961,190.931 190.661,191.595 173.800 C 192.409 153.130,192.628 143.392,192.309 142.146 C 191.631 139.499,189.673 139.539,180.200 142.397 C 176.217 143.599,172.576 144.646,169.800 145.388 C 168.480 145.741,167.040 146.194,166.600 146.395 C 166.160 146.596,164.810 147.023,163.600 147.344 C 161.531 147.892,159.739 148.401,152.700 150.440 C 151.105 150.902,148.720 151.579,147.400 151.946 C 143.315 153.079,142.627 153.628,141.719 156.479 C 140.822 159.293,139.142 164.996,136.794 173.200 C 136.321 174.850,135.602 177.280,135.195 178.600 C 134.789 179.920,134.330 181.624,134.177 182.387 C 134.024 183.150,133.744 184.050,133.556 184.387 C 133.368 184.724,132.929 186.080,132.580 187.400 C 131.838 190.209,130.782 193.878,129.587 197.800 C 129.117 199.340,128.405 201.770,128.005 203.200 C 126.764 207.628,125.704 211.283,124.815 214.200 C 124.346 215.740,123.627 218.170,123.219 219.600 C 122.810 221.030,122.111 223.460,121.665 225.000 C 121.219 226.540,120.565 228.880,120.212 230.200 C 119.859 231.520,119.404 232.960,119.200 233.400 C 118.996 233.840,118.541 235.280,118.188 236.600 C 117.835 237.920,117.210 240.170,116.800 241.600 C 116.390 243.030,115.762 245.280,115.404 246.600 C 115.047 247.920,114.506 249.720,114.203 250.600 C 113.899 251.480,113.279 253.505,112.825 255.100 C 112.371 256.695,111.640 259.260,111.200 260.800 C 105.793 279.726,106.226 278.574,104.859 277.639 C 104.277 277.241,102.540 276.141,101.000 275.193 C 99.460 274.246,97.570 273.073,96.800 272.587 C 92.060 269.595,90.697 268.742,88.000 267.078 C 86.350 266.060,84.533 264.906,83.962 264.514 L 82.925 263.800 84.099 260.000 C 84.744 257.910,85.422 255.840,85.606 255.400 C 86.143 254.109,89.600 243.119,89.600 242.702 C 89.600 242.492,89.851 241.754,90.157 241.060 C 90.464 240.367,91.292 237.910,91.998 235.600 C 92.704 233.290,93.874 229.600,94.598 227.400 C 95.322 225.200,96.757 220.700,97.786 217.400 C 98.816 214.100,99.809 211.040,99.993 210.600 C 100.177 210.160,100.895 207.910,101.589 205.600 C 102.284 203.290,103.003 201.040,103.187 200.600 C 103.514 199.820,106.916 189.192,108.502 184.000 C 108.938 182.570,109.544 180.833,109.848 180.140 C 110.151 179.446,110.400 178.708,110.400 178.498 C 110.400 178.288,111.228 175.566,112.240 172.447 C 114.950 164.101,113.641 161.703,107.514 163.782 C 106.571 164.101,104.720 164.631,103.400 164.959 C 102.080 165.287,99.650 165.939,98.000 166.408 C 96.350 166.877,93.740 167.593,92.200 168.000 C 90.660 168.407,88.057 169.105,86.415 169.551 C 84.774 169.998,83.352 170.286,83.256 170.190 C 83.161 170.094,83.319 165.107,83.607 159.108 C 83.896 153.109,84.237 145.898,84.366 143.084 C 84.608 137.793,84.813 137.221,86.476 137.206 C 86.848 137.203,87.249 137.045,87.366 136.855 C 87.483 136.665,88.439 136.277,89.490 135.993 C 90.540 135.708,91.580 135.354,91.800 135.205 C 92.020 135.057,93.640 134.430,95.400 133.814 C 97.160 133.197,99.140 132.464,99.800 132.185 C 100.460 131.905,101.810 131.400,102.800 131.061 C 110.382 128.470,111.880 127.717,112.404 126.236 C 112.673 125.477,112.995 117.746,113.238 106.200 C 113.457 95.860,113.731 85.780,113.847 83.800 L 114.060 80.200 117.530 78.529 C 129.395 72.817,134.481 70.400,134.631 70.400 C 134.726 70.400,136.814 69.410,139.271 68.200 C 141.729 66.990,143.822 66.000,143.922 66.000 C 144.161 66.000,143.583 107.109,143.253 113.535 C 142.866 121.083,145.007 123.439,149.891 120.841 C 150.281 120.633,152.310 119.892,154.400 119.193 C 156.490 118.494,158.560 117.760,159.000 117.561 C 159.440 117.362,160.610 116.947,161.600 116.640 C 163.893 115.927,171.547 113.269,172.600 112.819 C 173.040 112.631,175.110 111.903,177.200 111.200 C 179.290 110.497,181.360 109.777,181.800 109.600 C 182.240 109.423,184.310 108.706,186.400 108.007 C 188.490 107.308,190.491 106.584,190.847 106.398 C 191.203 106.212,192.193 105.865,193.047 105.627 C 196.907 104.553,197.127 103.762,197.170 90.800 C 197.185 86.070,197.381 78.060,197.606 73.000 C 197.830 67.940,198.056 60.399,198.107 56.243 C 198.184 50.003,198.305 48.629,198.800 48.362 C 199.409 48.033,199.855 47.841,205.200 45.607 C 206.850 44.917,208.560 44.194,209.000 44.000 C 209.440 43.806,211.150 43.086,212.800 42.400 C 214.450 41.714,216.160 40.992,216.600 40.794 C 217.040 40.597,218.120 40.130,219.000 39.757 C 219.880 39.384,221.950 38.492,223.600 37.776 C 225.250 37.060,226.750 36.457,226.932 36.437 C 227.115 36.417,227.150 43.285,227.009 51.700 M238.208 47.802 C 242.456 52.639,244.911 55.626,244.747 55.754 C 244.094 56.265,234.645 59.226,234.206 59.058 C 233.674 58.853,233.696 45.783,234.232 44.070 C 234.427 43.449,234.193 43.229,238.208 47.802 M249.022 62.934 C 248.883 63.410,248.659 67.355,248.524 71.701 L 248.279 79.602 246.640 80.025 C 245.738 80.258,244.280 80.695,243.400 80.995 C 239.526 82.319,235.088 83.600,234.375 83.600 C 233.632 83.600,233.600 83.243,233.600 75.049 C 233.600 65.207,233.233 66.077,238.020 64.572 C 239.879 63.988,241.760 63.350,242.200 63.156 C 246.505 61.254,249.542 61.155,249.022 62.934 M258.302 71.300 C 259.627 72.895,261.111 74.650,261.600 75.200 C 264.623 78.599,265.343 79.685,264.968 80.278 C 264.531 80.972,256.396 83.927,254.751 83.990 C 254.491 84.000,254.742 69.774,255.018 68.900 C 255.310 67.971,255.885 68.391,258.302 71.300 M159.709 78.019 L 163.617 81.905 159.709 83.588 C 157.559 84.513,155.072 85.598,154.181 85.999 C 150.781 87.529,150.986 87.956,151.108 79.600 C 151.268 68.619,150.414 68.776,159.709 78.019 M270.120 93.100 C 269.863 101.756,270.949 100.533,260.800 103.596 C 259.150 104.094,257.080 104.731,256.200 105.011 C 255.320 105.292,254.449 105.429,254.265 105.316 C 253.984 105.143,254.304 91.226,254.597 90.886 C 254.695 90.772,263.547 87.601,266.600 86.585 C 267.480 86.293,268.680 86.041,269.266 86.027 L 270.331 86.000 270.120 93.100 M165.972 91.900 C 165.935 97.160,165.395 107.538,165.145 107.788 C 164.766 108.167,151.458 112.800,150.748 112.800 C 150.366 112.800,150.269 96.328,150.644 94.933 C 150.796 94.364,151.585 93.768,152.938 93.199 C 154.072 92.722,155.720 91.996,156.600 91.585 C 166.221 87.094,166.006 87.086,165.972 91.900 M178.578 96.498 C 183.861 101.644,183.814 101.487,180.400 102.578 C 179.410 102.894,177.277 103.626,175.660 104.204 C 171.311 105.759,171.451 105.981,171.795 98.094 C 171.955 94.412,172.173 91.256,172.279 91.081 C 172.534 90.656,172.946 91.010,178.578 96.498 M277.356 93.759 C 277.600 94.067,279.960 96.787,282.600 99.805 C 289.485 107.673,290.260 108.736,289.337 109.037 C 288.932 109.169,288.060 109.519,287.400 109.815 C 285.781 110.540,280.263 112.753,277.816 113.658 C 275.143 114.647,275.181 114.770,275.637 106.598 C 276.415 92.662,276.425 92.587,277.356 93.759 M267.595 112.300 C 267.588 116.977,267.381 117.894,266.257 118.228 C 262.009 119.491,260.929 120.635,260.620 124.200 C 260.486 125.740,260.196 128.800,259.975 131.000 C 259.753 133.200,259.415 137.767,259.222 141.150 C 258.806 148.460,259.324 147.778,252.502 149.994 C 249.587 150.940,247.005 151.953,246.764 152.244 C 246.222 152.897,245.686 159.936,245.341 170.936 C 245.117 178.077,244.988 179.300,244.440 179.472 C 244.088 179.582,243.440 179.831,243.000 180.025 C 240.344 181.197,229.995 184.529,229.756 184.289 C 229.515 184.049,230.341 154.744,230.628 153.318 C 230.744 152.744,231.260 152.298,232.103 152.042 C 237.249 150.481,238.803 149.329,238.797 147.078 C 238.793 145.674,239.556 136.566,239.849 134.506 C 240.030 133.238,240.124 133.184,244.650 131.759 C 251.498 129.602,251.309 129.866,251.660 121.985 C 252.120 111.696,251.590 112.742,257.200 111.044 C 258.410 110.678,260.750 109.944,262.400 109.414 C 264.050 108.884,265.895 108.439,266.500 108.425 L 267.600 108.400 267.595 112.300 M292.646 119.577 C 292.340 125.350,292.331 125.374,290.479 125.927 C 289.666 126.170,287.470 126.827,285.600 127.388 C 283.730 127.949,281.210 128.701,280.000 129.060 C 278.790 129.419,277.295 129.893,276.678 130.114 C 275.033 130.702,274.881 130.253,275.154 125.600 L 275.400 121.400 276.800 120.715 C 279.863 119.217,291.058 114.874,291.950 114.838 L 292.900 114.800 292.646 119.577 M266.602 138.300 C 266.393 142.965,266.169 144.756,265.738 145.200 C 265.158 145.799,265.221 138.791,265.842 133.700 C 266.377 129.306,266.871 132.293,266.602 138.300 M288.217 141.500 C 287.702 157.970,286.983 169.999,286.486 170.444 C 286.329 170.585,284.400 171.279,282.200 171.986 C 280.000 172.693,277.633 173.525,276.940 173.836 C 276.246 174.146,275.465 174.400,275.202 174.400 C 273.987 174.400,268.512 176.597,267.784 177.376 C 266.822 178.406,266.267 186.842,265.586 210.800 C 265.370 218.390,265.024 226.760,264.817 229.400 C 264.610 232.040,264.336 238.835,264.208 244.500 C 263.950 255.900,263.950 255.902,262.456 256.260 C 261.875 256.399,260.950 256.732,260.400 257.000 C 259.850 257.268,258.905 257.606,258.300 257.751 L 257.200 258.015 257.191 253.108 C 257.187 250.408,257.402 241.509,257.669 233.330 C 258.273 214.867,258.325 215.035,252.552 216.598 C 249.222 217.499,249.418 218.135,249.998 208.314 C 250.274 203.631,250.613 196.238,250.750 191.885 C 250.953 185.475,251.114 183.899,251.600 183.596 C 251.930 183.390,254.180 182.568,256.600 181.769 C 262.768 179.734,262.445 180.556,263.567 164.000 C 264.419 151.423,264.062 152.484,267.842 151.290 C 271.949 149.991,272.064 149.797,272.371 143.606 C 272.670 137.567,272.607 137.674,276.600 136.477 C 278.140 136.016,281.110 135.105,283.200 134.452 C 289.074 132.620,288.520 131.840,288.217 141.500 M233.230 140.659 C 232.684 145.511,232.654 145.600,231.558 145.600 C 230.338 145.600,231.109 136.177,232.353 135.888 C 233.589 135.602,233.720 136.312,233.230 140.659 M303.481 154.953 C 307.092 158.379,307.416 157.949,299.500 160.250 C 298.864 160.435,298.800 160.057,298.800 156.094 C 298.800 150.190,298.530 150.256,303.481 154.953 M173.403 154.900 C 173.301 156.495,173.119 161.217,173.000 165.394 C 172.747 174.295,173.280 173.404,167.000 175.425 C 160.423 177.542,160.810 177.017,156.856 189.200 C 155.035 194.810,153.300 200.030,152.999 200.800 C 152.699 201.570,152.164 203.124,151.810 204.253 L 151.167 206.307 148.118 207.453 C 145.445 208.459,144.993 208.776,144.453 210.026 C 143.793 211.554,144.057 211.435,136.538 213.583 C 132.000 214.879,131.950 214.848,133.042 211.400 C 133.390 210.300,133.997 208.230,134.389 206.800 C 136.413 199.431,138.076 193.714,138.403 193.000 C 138.748 192.250,139.357 190.124,140.584 185.400 C 142.515 177.958,143.011 177.060,145.676 176.175 C 146.784 175.807,148.165 175.258,148.745 174.955 C 149.325 174.653,150.032 174.404,150.316 174.402 C 153.804 174.386,154.800 172.127,154.800 164.230 C 154.800 157.073,154.821 157.005,157.238 156.546 C 157.987 156.404,158.780 156.152,159.000 155.987 C 159.220 155.821,160.480 155.400,161.800 155.050 C 166.924 153.693,169.840 152.854,170.800 152.460 C 173.311 151.432,173.608 151.711,173.403 154.900 M185.041 159.300 C 184.886 162.435,184.712 165.540,184.654 166.200 C 184.596 166.860,184.516 167.870,184.475 168.444 C 184.406 169.405,181.202 171.200,179.556 171.200 C 178.867 171.200,179.300 155.941,180.000 155.558 C 181.416 154.782,184.244 153.628,184.761 153.615 C 185.231 153.602,185.277 154.537,185.041 159.300 M257.814 159.500 C 257.500 164.733,256.510 175.253,256.321 175.359 C 256.166 175.446,253.660 176.255,252.550 176.576 C 251.281 176.943,251.215 176.180,251.640 166.079 C 252.061 156.073,251.903 156.587,254.872 155.561 C 258.288 154.381,258.133 154.175,257.814 159.500 M148.640 164.358 C 148.365 168.281,148.099 168.905,146.500 169.384 C 145.341 169.731,145.321 168.976,146.400 165.600 C 146.840 164.223,147.200 162.858,147.200 162.567 C 147.200 161.609,148.109 160.020,148.513 160.270 C 148.762 160.424,148.809 161.951,148.640 164.358 M309.856 177.093 C 309.706 184.293,309.470 192.283,309.333 194.847 L 309.082 199.509 307.441 199.983 C 294.353 203.769,290.024 205.657,289.989 207.596 C 289.983 207.928,289.723 213.420,289.412 219.800 C 289.100 226.180,288.651 235.900,288.413 241.400 C 288.174 246.900,287.794 254.820,287.567 259.000 C 287.340 263.180,286.996 270.604,286.802 275.497 C 286.434 284.831,286.375 285.200,285.256 285.200 C 284.873 285.200,284.389 285.360,284.180 285.554 C 283.971 285.749,282.900 286.179,281.800 286.510 C 280.700 286.840,277.730 287.863,275.200 288.783 C 272.670 289.703,270.150 290.611,269.600 290.801 C 269.050 290.991,265.990 292.075,262.800 293.211 C 259.610 294.346,256.685 295.369,256.300 295.484 C 255.463 295.734,255.471 296.193,255.991 278.004 C 256.384 264.214,256.429 264.005,258.944 263.998 C 259.415 263.996,260.310 263.729,260.933 263.404 C 261.557 263.079,262.753 262.628,263.592 262.402 C 270.086 260.653,269.819 261.379,270.364 244.000 C 270.615 235.970,270.995 226.430,271.208 222.800 C 271.421 219.170,271.776 209.810,271.997 202.000 C 272.526 183.270,272.665 181.622,273.755 181.224 C 274.220 181.054,276.040 180.444,277.800 179.868 C 293.744 174.652,292.761 175.257,293.154 170.426 L 293.400 167.401 294.881 167.530 C 296.264 167.650,297.914 167.229,305.000 164.950 C 306.540 164.455,308.324 164.039,308.964 164.025 L 310.129 164.000 309.856 177.093 M98.384 180.469 C 98.101 183.841,97.809 186.675,97.736 186.766 C 97.662 186.857,95.442 184.705,92.802 181.985 C 87.060 176.070,86.804 176.764,95.600 174.406 C 99.031 173.486,98.980 173.374,98.384 180.469 M184.021 188.453 C 183.514 203.221,183.393 204.651,182.362 208.200 C 181.914 209.740,181.315 211.904,181.031 213.009 C 180.747 214.115,179.963 216.815,179.288 219.009 C 178.614 221.204,177.599 224.620,177.033 226.600 C 173.243 239.857,173.194 239.990,172.042 240.242 C 171.469 240.368,170.190 240.716,169.200 241.015 C 168.210 241.314,165.600 242.022,163.400 242.590 C 161.200 243.157,158.500 243.886,157.400 244.211 C 151.323 246.004,149.858 246.400,149.295 246.400 C 148.748 246.400,148.705 245.593,148.929 239.643 L 149.184 232.886 151.421 225.943 C 152.651 222.124,154.083 217.740,154.602 216.200 C 155.121 214.660,155.650 212.913,155.776 212.317 C 156.081 210.883,156.066 210.890,170.843 205.599 C 178.935 202.701,178.279 204.061,178.684 189.351 L 179.000 177.870 181.600 176.969 C 183.030 176.474,184.254 176.122,184.319 176.187 C 184.385 176.252,184.251 181.771,184.021 188.453 M172.607 189.300 C 172.449 194.195,172.203 198.302,172.060 198.426 C 171.754 198.693,169.740 199.496,165.600 201.000 C 163.950 201.600,161.919 202.370,161.087 202.712 C 159.102 203.527,158.630 203.056,159.348 200.981 C 160.277 198.296,160.791 196.739,162.049 192.800 C 162.716 190.710,163.499 188.370,163.789 187.600 C 164.080 186.830,164.516 185.456,164.760 184.547 C 165.345 182.367,168.661 180.460,171.947 180.413 L 172.893 180.400 172.607 189.300 M244.666 191.900 C 244.530 194.925,244.216 202.080,243.968 207.800 C 243.720 213.520,243.451 218.428,243.369 218.706 C 243.173 219.373,239.519 220.632,234.184 221.872 C 233.250 222.089,233.222 218.636,234.003 199.600 C 234.427 189.274,234.463 189.146,237.151 188.562 C 237.728 188.436,238.740 188.087,239.400 187.785 C 241.182 186.972,242.880 186.467,243.956 186.432 L 244.912 186.400 244.666 191.900 M227.200 219.555 L 227.200 223.910 224.500 224.761 C 220.038 226.167,213.473 228.063,212.300 228.284 L 211.200 228.491 211.200 225.122 C 211.200 220.575,211.471 220.354,220.200 217.759 C 221.300 217.432,222.560 216.995,223.000 216.788 C 223.440 216.580,224.520 216.160,225.400 215.852 C 226.280 215.545,227.045 215.272,227.100 215.247 C 227.155 215.221,227.200 217.160,227.200 219.555 M143.537 218.524 C 143.844 218.894,143.864 220.661,143.606 224.507 C 143.210 230.409,143.021 231.355,141.023 237.400 C 140.296 239.600,139.127 243.200,138.425 245.400 C 137.724 247.600,136.995 249.760,136.806 250.200 C 136.616 250.640,135.269 254.780,133.811 259.400 C 132.353 264.020,130.972 268.250,130.741 268.800 C 130.510 269.350,129.707 271.780,128.956 274.200 C 128.205 276.620,127.434 278.960,127.242 279.400 C 127.051 279.840,125.937 283.170,124.766 286.800 C 122.018 295.319,122.686 294.799,117.859 292.178 C 115.626 290.966,112.855 289.493,111.700 288.904 C 109.843 287.957,108.903 286.800,109.991 286.800 C 110.604 286.800,111.564 285.101,112.161 282.959 C 114.448 274.749,115.249 271.962,115.783 270.353 C 116.120 269.338,116.843 266.908,117.391 264.953 C 117.939 262.999,118.751 260.185,119.194 258.700 C 119.637 257.215,120.374 254.695,120.832 253.100 C 121.290 251.505,121.908 249.390,122.206 248.400 C 122.504 247.410,123.216 244.980,123.788 243.000 C 124.791 239.523,125.448 237.263,127.246 231.100 C 127.711 229.505,128.327 227.480,128.615 226.600 C 128.903 225.720,129.253 224.434,129.392 223.741 C 129.741 222.005,130.580 221.392,133.600 220.665 C 137.097 219.823,142.147 218.386,142.361 218.173 C 142.670 217.863,143.094 217.990,143.537 218.524 M204.996 232.991 C 204.727 241.595,204.636 242.460,203.960 242.822 C 203.002 243.334,202.483 244.333,201.556 247.457 C 201.140 248.856,200.425 251.215,199.968 252.700 C 199.190 255.223,198.689 256.981,197.035 263.000 C 196.672 264.320,195.848 267.110,195.203 269.200 C 194.558 271.290,193.204 275.880,192.192 279.400 C 191.181 282.920,190.002 286.970,189.572 288.400 C 189.142 289.830,188.524 291.900,188.197 293.000 C 185.505 302.069,184.682 304.889,184.167 306.800 C 183.842 308.010,183.047 310.710,182.402 312.800 C 181.757 314.890,180.673 318.580,179.994 321.000 C 179.315 323.420,178.588 325.713,178.379 326.095 C 178.171 326.477,178.000 327.052,178.000 327.374 C 178.000 327.696,177.548 329.453,176.995 331.279 C 176.041 334.433,175.647 335.765,173.587 342.800 C 173.104 344.450,172.476 346.520,172.192 347.400 C 171.908 348.280,171.565 349.495,171.430 350.100 C 171.288 350.737,170.916 351.200,170.548 351.200 C 169.888 351.200,150.453 338.428,149.661 337.473 C 149.021 336.703,150.372 333.052,151.675 332.027 C 152.769 331.166,153.023 330.603,154.388 326.000 C 157.373 315.942,157.740 314.678,159.213 309.400 C 159.889 306.980,160.612 304.687,160.821 304.305 C 161.029 303.923,161.200 303.348,161.200 303.026 C 161.200 302.704,161.652 300.947,162.205 299.121 C 162.757 297.294,163.580 294.540,164.034 293.000 C 164.487 291.460,165.207 289.030,165.634 287.600 C 167.217 282.291,167.626 280.891,168.965 276.200 C 169.718 273.560,170.425 271.130,170.536 270.800 C 170.646 270.470,171.670 267.230,172.811 263.600 C 173.953 259.970,175.857 254.037,177.043 250.415 C 178.272 246.663,179.200 243.104,179.200 242.141 C 179.200 241.212,179.401 239.945,179.648 239.326 C 180.063 238.281,180.457 236.938,182.210 230.600 C 183.015 227.688,182.939 227.772,184.063 228.559 C 185.644 229.667,188.902 228.949,197.600 225.575 C 200.135 224.592,204.931 223.224,205.145 223.423 C 205.225 223.497,205.158 227.803,204.996 232.991 M251.603 229.300 C 251.607 235.616,250.848 258.541,250.594 259.800 C 250.432 260.605,250.025 260.794,245.000 262.393 C 243.680 262.812,240.530 263.908,238.000 264.827 C 231.623 267.143,231.600 267.146,231.602 265.747 C 231.604 264.702,232.410 244.353,232.543 242.000 C 232.591 241.154,232.968 240.871,235.000 240.161 C 236.320 239.700,237.670 239.211,238.000 239.075 C 238.330 238.939,240.400 238.210,242.600 237.455 C 247.980 235.609,247.867 235.663,248.576 234.580 C 249.008 233.921,249.200 232.658,249.200 230.470 C 249.200 225.199,249.539 223.600,250.654 223.600 L 251.600 223.600 251.603 229.300 M243.200 228.175 C 243.200 230.997,243.621 230.707,235.485 233.479 C 232.921 234.352,232.549 233.965,233.033 230.927 L 233.400 228.628 236.400 227.725 C 238.050 227.229,240.120 226.571,241.000 226.263 C 243.074 225.538,243.200 225.647,243.200 228.175 M226.795 232.900 C 226.786 235.992,226.484 236.734,225.055 237.170 C 224.365 237.381,221.460 238.380,218.600 239.391 C 215.740 240.402,213.060 241.340,212.644 241.476 C 211.790 241.755,211.884 240.598,213.044 236.542 C 213.734 234.129,213.505 234.241,223.400 231.448 C 226.761 230.499,226.801 230.516,226.795 232.900 M225.963 251.100 C 225.843 260.686,225.731 261.698,224.839 261.221 C 223.940 260.740,213.800 248.536,213.800 247.935 C 213.800 247.676,216.003 246.718,218.695 245.804 C 221.387 244.891,223.712 244.021,223.862 243.872 C 224.011 243.722,224.566 243.600,225.095 243.600 L 226.057 243.600 225.963 251.100 M170.800 247.729 C 170.800 248.020,170.555 249.055,170.257 250.029 C 169.621 252.100,168.826 254.809,167.388 259.800 C 166.817 261.780,165.841 265.020,165.219 267.000 C 164.597 268.980,163.159 273.570,162.024 277.200 C 160.890 280.830,159.724 284.430,159.433 285.200 C 159.143 285.970,158.418 288.220,157.823 290.200 C 157.227 292.180,156.484 294.391,156.170 295.114 C 155.857 295.836,155.600 296.637,155.600 296.893 C 155.600 297.570,147.299 323.218,146.969 323.559 C 146.885 323.646,146.096 323.241,145.217 322.659 C 144.337 322.076,143.536 321.600,143.437 321.600 C 143.338 321.600,142.173 320.880,140.848 320.000 C 139.523 319.120,138.333 318.400,138.203 318.400 C 138.073 318.400,137.749 318.214,137.483 317.986 C 136.804 317.404,131.556 314.071,128.061 312.002 C 124.650 309.983,124.499 309.735,125.311 307.485 C 125.646 306.558,126.854 302.830,127.996 299.200 C 129.138 295.570,130.574 291.070,131.187 289.200 C 131.800 287.330,133.245 282.830,134.397 279.200 C 135.549 275.570,136.991 271.070,137.600 269.200 C 138.209 267.330,139.563 263.100,140.608 259.800 C 142.778 252.951,142.811 252.894,144.190 253.523 C 145.208 253.986,145.888 253.845,154.400 251.400 C 155.390 251.116,158.000 250.393,160.200 249.792 C 162.400 249.192,165.370 248.379,166.800 247.986 C 170.010 247.102,170.800 247.052,170.800 247.729 M250.091 267.700 C 250.188 267.975,250.130 271.440,249.963 275.400 C 249.795 279.360,249.645 284.265,249.629 286.300 C 249.598 290.211,249.295 290.733,248.003 289.100 C 247.611 288.605,244.481 284.880,241.046 280.823 C 234.176 272.709,234.150 272.661,236.300 272.003 C 237.125 271.751,238.160 271.382,238.600 271.183 C 239.619 270.723,242.432 269.736,245.000 268.939 C 246.100 268.598,247.180 268.176,247.400 268.002 C 247.740 267.733,248.654 267.427,249.657 267.246 C 249.799 267.221,249.994 267.425,250.091 267.700 M115.081 297.691 C 117.462 298.738,120.799 300.861,120.782 301.319 C 120.772 301.584,120.537 302.332,120.260 302.982 L 119.755 304.165 117.207 301.471 C 114.638 298.755,113.383 297.200,113.758 297.200 C 113.871 297.200,114.466 297.421,115.081 297.691 M142.931 328.438 C 144.035 329.169,144.800 329.978,144.800 330.414 C 144.800 331.804,144.055 331.612,142.328 329.776 C 139.582 326.856,139.803 326.366,142.931 328.438 " stroke="none" fill="#060404" fill-rule="evenodd"></path></g></svg>